<svg width="30" height="33" viewBox="0 0 30 33" fill="none" xmlns="http://www.w3.org/2000/svg">
<path d="M17.112 0.742597C16.513 0.261951 15.768 0 15 0C14.232 0 13.487 0.261951 12.888 0.742597L1.263 10.0694C0.86882 10.3857 0.550689 10.7864 0.332089 11.2421C0.113489 11.6978 7.03886e-07 12.1968 0 12.7022V29.6245C0 30.5198 0.35558 31.3783 0.988515 32.0113C1.62145 32.6444 2.47989 33 3.375 33H7.125C8.02011 33 8.87855 32.6444 9.51149 32.0113C10.1444 31.3783 10.5 30.5198 10.5 29.6245V21.3734C10.5 20.3383 11.34 19.4982 12.375 19.4982H17.625C18.66 19.4982 19.5 20.3383 19.5 21.3734V29.6245C19.5 30.5198 19.8556 31.3783 20.4885 32.0113C21.1215 32.6444 21.9799 33 22.875 33H26.625C27.5201 33 28.3785 32.6444 29.0115 32.0113C29.6444 31.3783 30 30.5198 30 29.6245V12.7022C30 12.1968 29.8865 11.6978 29.6679 11.2421C29.4493 10.7864 29.1312 10.3857 28.737 10.0694L17.112 0.742597Z" fill="url(#paint0_linear_165_33)"/>
<defs>
<linearGradient id="paint0_linear_165_33" x1="0" y1="0" x2="32.8507" y2="29.8643" gradientUnits="userSpaceOnUse">
<stop stop-color="white"/>
<stop offset="1" stop-color="#E8E8E8"/>
</linearGradient>
</defs>
</svg>
