<svg width="35" height="33" viewBox="0 0 35 33" fill="none" xmlns="http://www.w3.org/2000/svg">
<path d="M16.4115 20.835H29.75C30.2141 20.835 30.6593 20.652 30.9874 20.3264C31.3156 20.0008 31.5 19.5592 31.5 19.0987V5.20874C31.5 4.74826 31.3156 4.30664 30.9874 3.98103C30.6593 3.65542 30.2141 3.4725 29.75 3.4725H5.25C4.78587 3.4725 4.34075 3.65542 4.01256 3.98103C3.68437 4.30664 3.5 4.74826 3.5 5.20874V19.0987C3.5 19.5592 3.68437 20.0008 4.01256 20.3264C4.34075 20.652 4.78587 20.835 5.25 20.835C5.71413 20.835 6.15925 21.0179 6.48744 21.3435C6.81563 21.6691 7 22.1107 7 22.5712V27.8025L16.4115 20.835ZM5.25 0H29.75C31.1424 0 32.4777 0.548777 33.4623 1.52561C34.4469 2.50243 35 3.8273 35 5.20874V19.0987C35 20.4802 34.4469 21.805 33.4623 22.7819C32.4777 23.7587 31.1424 24.3075 29.75 24.3075H17.5735L6.2965 32.6553C6.03625 32.848 5.72712 32.965 5.40368 32.9933C5.08023 33.0216 4.75523 32.96 4.46503 32.8155C4.17483 32.671 3.93087 32.4493 3.76044 32.1751C3.59001 31.9009 3.49984 31.585 3.5 31.2629V24.3075C2.57174 24.3075 1.6815 23.9416 1.02513 23.2904C0.368749 22.6392 0 21.7559 0 20.835V5.20874C0 3.8273 0.553123 2.50243 1.53769 1.52561C2.52226 0.548777 3.85761 0 5.25 0Z" fill="url(#paint0_linear_165_28)"/>
<defs>
<linearGradient id="paint0_linear_165_28" x1="0" y1="0" x2="32.943" y2="34.9395" gradientUnits="userSpaceOnUse">
<stop stop-color="white"/>
<stop offset="1" stop-color="#F0F0F0"/>
</linearGradient>
</defs>
</svg>
