<svg width="32" height="32" viewBox="0 0 32 32" fill="none" xmlns="http://www.w3.org/2000/svg">
<path fill-rule="evenodd" clip-rule="evenodd" d="M4.57695 13.7263C4.57695 11.2994 5.541 8.9718 7.25703 7.25568C8.97306 5.53955 11.3005 4.57544 13.7273 4.57544C16.1542 4.57544 18.4816 5.53955 20.1976 7.25568C21.9137 8.9718 22.8777 11.2994 22.8777 13.7263C22.8777 16.1533 21.9137 18.4809 20.1976 20.197C18.4816 21.9131 16.1542 22.8772 13.7273 22.8772C11.3005 22.8772 8.97306 21.9131 7.25703 20.197C5.541 18.4809 4.57695 16.1533 4.57695 13.7263ZM13.7273 2.59568e-07C11.5672 -0.000275418 9.43743 0.509344 7.51134 1.48741C5.58525 2.46548 3.9172 3.88438 2.64284 5.6287C1.36848 7.37303 0.52381 9.39353 0.177516 11.5259C-0.168778 13.6582 -0.00691424 15.8422 0.649944 17.9002C1.3068 19.9582 2.44011 21.8321 3.95769 23.3695C5.47526 24.9068 7.33426 26.0643 9.38349 26.7477C11.4327 27.4311 13.6143 27.6212 15.7508 27.3024C17.8874 26.9837 19.9185 26.1651 21.679 24.9133L28.1232 31.3578C28.5546 31.7745 29.1325 32.0051 29.7323 31.9999C30.3321 31.9947 30.9058 31.7541 31.33 31.3299C31.7541 30.9058 31.9947 30.332 31.9999 29.7322C32.0051 29.1323 31.7745 28.5544 31.3578 28.123L24.916 21.6807C26.3761 19.6272 27.2428 17.2113 27.4212 14.6979C27.5995 12.1844 27.0826 9.67037 25.927 7.43121C24.7715 5.19205 23.0219 3.31419 20.87 2.00341C18.7181 0.692631 16.247 -0.000489689 13.7273 2.59568e-07Z" fill="url(#paint0_linear_165_32)"/>
<defs>
<linearGradient id="paint0_linear_165_32" x1="0" y1="0" x2="32" y2="32" gradientUnits="userSpaceOnUse">
<stop stop-color="white"/>
<stop offset="1" stop-color="#ECECEC"/>
</linearGradient>
</defs>
</svg>
